<?xml version="1.0" standalone="no"?>
<!DOCTYPE svg PUBLIC "-//W3C//DTD SVG 20010904//EN"
 "http://www.w3.org/TR/2001/REC-SVG-20010904/DTD/svg10.dtd">
<svg version="1.0" xmlns="http://www.w3.org/2000/svg"
 width="800.000000pt" height="800.000000pt" viewBox="0 0 800.000000 800.000000"
 preserveAspectRatio="xMidYMid meet">
<metadata>
Created by potrace 1.14, written by Peter Selinger 2001-2017
</metadata>
<g transform="translate(0.000000,800.000000) scale(0.100000,-0.100000)"
fill="#000000" stroke="none">
<path d="M5058 7155 c-5 -6 -28 -12 -50 -14 -5 -1 -8 -6 -8 -12 0 -6 -7 -18
-16 -26 -9 -9 -14 -26 -11 -39 2 -14 0 -21 -6 -17 -6 4 -8 0 -4 -10 3 -10 3
-17 -1 -17 -4 0 -8 -11 -8 -25 -1 -16 2 -23 10 -19 6 3 4 0 -4 -8 -9 -7 -15
-23 -14 -35 1 -13 -2 -23 -6 -23 -5 0 -7 -8 -5 -17 1 -10 0 -22 -4 -28 -3 -5
-6 -18 -7 -27 -1 -10 -2 -19 -4 -20 -4 -6 -21 -101 -21 -120 0 -10 -6 -18 -12
-18 -7 0 -6 -4 3 -10 12 -8 12 -10 1 -10 -8 0 -11 -3 -8 -7 4 -3 1 -13 -6 -21
-10 -13 -9 -14 1 -8 11 7 12 4 3 -13 -7 -12 -9 -26 -6 -31 3 -6 2 -10 -4 -10
-5 0 -8 -9 -6 -20 2 -11 0 -22 -5 -25 -5 -3 -7 -14 -5 -25 2 -11 0 -20 -5 -20
-4 0 -6 -8 -3 -19 3 -10 0 -22 -7 -26 -8 -5 -7 -11 2 -23 11 -13 11 -14 -1 -7
-11 6 -13 4 -8 -7 3 -9 3 -19 -1 -22 -3 -4 -7 -12 -8 -19 -11 -70 -15 -91 -21
-100 -4 -6 -8 -27 -9 -47 -1 -19 -3 -35 -4 -35 -2 0 -7 -22 -15 -69 -12 -70
-14 -78 -24 -90 -7 -9 -7 -16 1 -24 9 -9 9 -12 0 -12 -6 0 -9 -7 -5 -17 5 -11
3 -14 -6 -8 -10 6 -11 3 -1 -15 7 -13 8 -20 2 -16 -10 6 -12 0 -13 -51 0 -13
-4 -23 -8 -23 -6 0 -10 -22 -12 -82 0 -10 -5 -21 -11 -24 -6 -4 -5 -10 3 -15
10 -6 10 -9 2 -9 -11 0 -31 -91 -25 -112 1 -5 -2 -8 -8 -8 -5 0 -7 -7 -4 -15
4 -8 2 -21 -3 -28 -5 -6 -9 -26 -9 -44 1 -17 -3 -29 -8 -25 -5 3 -7 -2 -3 -10
3 -9 3 -19 -1 -22 -6 -7 -10 -22 -16 -64 -1 -12 -6 -25 -9 -29 -4 -3 -7 -15
-7 -25 0 -11 -4 -17 -8 -14 -4 2 -8 -3 -9 -12 -2 -27 -11 -59 -26 -94 -16 -36
-29 -71 -27 -76 0 -1 -6 -10 -15 -19 -9 -8 -14 -22 -11 -29 3 -8 1 -14 -4 -14
-6 0 -10 -7 -10 -15 0 -7 -8 -19 -17 -24 -10 -6 -15 -11 -10 -11 13 0 -97
-180 -115 -188 -5 -2 -6 -8 -2 -13 3 -5 1 -9 -5 -9 -5 0 -20 -17 -33 -39 -13
-21 -27 -40 -33 -41 -14 -5 -38 -30 -29 -30 4 0 -7 -11 -26 -25 -19 -14 -38
-32 -43 -40 -4 -8 -15 -15 -23 -15 -8 0 -13 -4 -9 -9 3 -5 -4 -12 -15 -16 -11
-4 -18 -10 -15 -14 2 -5 -7 -13 -20 -19 -14 -7 -25 -16 -25 -22 0 -6 -4 -9 -9
-5 -5 3 -16 -2 -24 -10 -9 -8 -20 -15 -26 -15 -6 0 -11 -4 -11 -10 0 -5 -7
-10 -16 -10 -9 0 -12 -5 -8 -12 4 -6 3 -8 -3 -5 -6 4 -19 0 -29 -8 -10 -8 -27
-15 -37 -15 -11 0 -15 -4 -11 -12 5 -7 2 -9 -9 -5 -9 3 -17 1 -19 -4 -2 -6
-10 -11 -18 -13 -8 -2 -26 -8 -40 -13 -14 -6 -29 -8 -34 -5 -5 3 -6 0 -3 -5 6
-10 -37 -29 -55 -25 -5 1 -8 -3 -8 -9 0 -5 -4 -8 -8 -5 -4 3 -38 -6 -75 -19
-37 -13 -67 -21 -67 -18 0 3 -7 0 -15 -7 -8 -6 -20 -8 -27 -4 -7 4 -10 3 -5
-1 6 -7 -57 -30 -111 -39 -8 -1 -18 -9 -23 -17 -6 -10 -9 -10 -9 -1 0 8 -5 9
-17 3 -17 -9 -40 -17 -56 -20 -4 0 -23 -7 -42 -15 -20 -9 -39 -16 -43 -17 -13
-3 -31 -9 -49 -16 -10 -3 -22 -7 -28 -8 -26 -4 -71 -19 -82 -28 -7 -5 -13 -7
-13 -3 0 3 -15 0 -34 -8 -19 -8 -37 -12 -40 -8 -3 3 -6 0 -6 -6 0 -7 -9 -12
-19 -12 -11 0 -32 -11 -47 -25 -15 -14 -23 -25 -19 -25 4 0 2 -6 -4 -14 -13
-15 -12 -96 1 -96 4 0 8 -6 8 -13 0 -23 151 -94 172 -81 5 3 8 0 8 -6 0 -6 4
-9 9 -5 5 3 12 1 16 -5 4 -6 11 -8 16 -5 5 4 9 1 9 -5 0 -6 4 -9 8 -6 4 2 21
-1 37 -8 17 -8 63 -24 103 -37 39 -13 72 -26 72 -29 0 -3 8 -7 18 -8 25 -3 44
-8 72 -19 14 -6 28 -9 33 -6 4 2 7 -1 7 -7 0 -6 5 -8 10 -5 6 3 10 0 10 -7 0
-10 2 -10 9 1 6 9 10 10 12 2 3 -7 13 -14 24 -16 11 -2 22 -4 25 -5 3 -1 10
-3 15 -4 6 -1 27 -9 49 -19 21 -9 46 -17 55 -17 9 0 22 -5 28 -11 6 -6 17 -12
24 -13 63 -14 80 -20 90 -32 6 -8 15 -11 20 -8 5 3 9 0 9 -7 0 -7 3 -9 6 -6 9
9 145 -63 162 -85 7 -10 19 -18 25 -18 7 0 26 -11 42 -25 17 -13 41 -32 54
-42 43 -32 91 -82 91 -94 0 -7 3 -10 6 -6 8 8 34 -18 34 -33 0 -6 5 -8 10 -5
6 3 10 2 10 -3 0 -4 16 -27 36 -50 19 -23 32 -42 29 -42 -4 0 2 -8 13 -17 12
-10 22 -24 24 -32 2 -8 10 -22 18 -32 36 -42 41 -50 45 -67 2 -10 15 -36 29
-57 15 -21 24 -40 21 -43 -2 -3 3 -11 13 -18 14 -11 14 -13 2 -14 -12 0 -10
-4 4 -15 11 -8 16 -15 10 -15 -5 0 -5 -3 1 -8 11 -8 36 -67 38 -92 1 -8 6 -18
10 -21 4 -3 9 -16 10 -27 1 -12 5 -22 10 -22 4 0 5 -5 2 -10 -3 -6 0 -10 7
-10 9 0 9 -3 -2 -10 -11 -7 -11 -10 -2 -10 7 0 10 -5 7 -10 -3 -5 -1 -10 5
-10 6 0 9 -4 6 -9 -4 -5 0 -12 6 -14 10 -4 9 -6 -1 -6 -10 -1 -11 -4 -3 -14 6
-7 12 -25 14 -39 2 -15 7 -30 10 -34 4 -3 4 -12 1 -20 -3 -8 0 -20 6 -28 6 -7
9 -15 6 -17 -2 -3 0 -21 5 -40 5 -19 12 -50 15 -69 3 -19 8 -43 11 -53 3 -11
8 -31 10 -45 8 -50 11 -67 13 -67 4 0 11 -39 14 -72 1 -18 5 -33 8 -33 3 0 6
-6 6 -12 1 -18 11 -83 13 -83 2 0 10 -38 12 -63 1 -12 6 -22 10 -22 4 0 5 -7
2 -15 -3 -8 -2 -20 2 -27 5 -7 9 -24 10 -38 0 -14 4 -33 9 -43 4 -10 8 -38 9
-62 0 -23 4 -41 9 -38 6 4 12 -36 8 -64 -1 -7 2 -13 6 -13 5 0 10 -10 11 -22
2 -26 10 -63 12 -63 1 0 4 -18 6 -40 3 -21 10 -46 17 -54 10 -12 9 -13 -3 -6
-13 8 -13 7 -1 -8 7 -9 10 -17 7 -17 -4 0 -2 -9 4 -20 8 -15 8 -20 -2 -20 -11
0 -11 -2 0 -8 7 -5 15 -32 19 -60 3 -29 9 -52 12 -52 3 0 7 -19 8 -42 2 -24 8
-45 13 -46 7 -3 7 -9 -1 -18 -9 -11 -9 -14 1 -14 7 0 10 -7 6 -15 -3 -8 -2
-15 3 -15 4 0 7 -10 6 -23 -1 -12 1 -26 5 -32 4 -5 7 -17 8 -25 1 -37 9 -81
17 -88 5 -4 5 0 1 8 -9 18 13 -9 29 -35 18 -30 125 -22 125 8 0 6 7 18 15 27
9 10 20 43 25 75 5 32 15 62 21 66 8 5 8 8 -1 11 -10 3 -10 9 -1 27 7 12 10
29 7 37 -3 8 -2 14 3 14 4 0 8 6 8 13 0 6 6 39 12 72 7 33 14 69 16 80 1 11 3
20 4 20 4 0 13 49 14 73 1 12 5 22 9 22 4 0 7 3 7 8 -4 25 2 72 9 68 5 -3 8
13 6 34 -1 22 1 40 5 40 4 0 7 8 8 18 1 16 5 34 19 99 3 16 7 37 9 48 2 11 7
34 10 50 4 17 8 37 10 45 2 8 7 36 11 63 3 26 11 47 17 47 8 0 7 4 0 11 -7 7
-8 18 -3 28 20 37 29 81 18 87 -8 5 -7 10 3 18 8 6 15 20 16 31 3 30 13 86 25
135 1 8 8 18 13 22 6 5 5 8 -4 8 -11 0 -11 3 -1 15 7 8 9 15 5 15 -4 0 -3 6 2
13 5 6 8 22 7 34 0 13 1 23 5 23 3 0 7 10 7 23 1 12 4 33 8 47 3 14 8 36 11
50 3 14 8 39 11 55 4 17 7 36 7 43 0 6 5 12 10 12 5 0 7 7 3 15 -3 8 -1 15 5
15 6 0 7 5 4 10 -4 6 -2 16 3 23 6 7 12 24 14 39 2 14 10 33 17 41 7 9 10 21
6 27 -3 5 -1 10 4 10 6 0 11 9 11 19 0 11 6 26 13 33 6 7 12 18 12 23 1 17 39
95 47 95 4 0 4 7 1 17 -4 11 -3 14 5 9 7 -4 12 -1 12 7 0 8 11 31 25 51 13 20
21 36 17 36 -4 0 -2 4 4 8 6 4 24 28 41 53 17 25 38 51 47 58 9 7 14 17 11 21
-3 4 2 11 11 14 8 3 12 11 9 16 -4 6 -3 9 2 8 4 -1 21 10 37 25 16 15 25 27
20 27 -5 1 4 8 19 16 15 8 25 19 22 24 -4 6 -2 10 4 10 5 0 20 9 33 20 66 57
84 70 96 70 7 0 10 4 7 10 -3 5 5 12 19 16 13 3 27 12 30 21 3 8 10 12 15 8 5
-3 12 -1 16 4 7 12 165 92 165 84 0 -3 7 1 16 8 9 8 22 14 28 14 6 1 24 7 40
13 16 7 36 14 45 16 9 2 23 6 31 9 79 30 116 41 124 39 5 -2 12 1 15 7 4 5 19
12 34 15 14 2 32 8 39 13 7 4 18 8 23 9 10 2 155 50 185 61 8 4 18 5 23 5 4
-1 7 3 7 9 0 5 5 7 10 4 6 -4 17 -2 24 4 7 6 21 12 32 14 10 1 25 6 32 10 6 5
12 5 12 1 0 -3 7 -1 15 6 8 6 20 8 26 4 8 -4 9 -3 5 4 -5 8 1 12 14 12 12 0
30 5 41 11 11 6 29 12 39 14 24 5 60 36 54 47 -3 5 0 7 6 6 22 -5 31 99 10
112 -6 4 -11 9 -10 11 4 12 -14 39 -27 39 -8 0 -11 5 -7 12 4 6 3 8 -2 5 -6
-3 -41 5 -79 18 -37 13 -72 22 -77 19 -4 -3 -8 0 -8 6 0 7 -7 10 -15 6 -8 -3
-15 -1 -15 4 0 6 -11 10 -25 10 -14 0 -25 5 -25 11 0 5 -4 8 -9 5 -5 -3 -25 1
-44 9 -19 8 -37 11 -41 8 -3 -4 -6 -1 -6 5 0 7 -3 11 -7 10 -5 -1 -26 4 -48
10 -22 6 -44 11 -49 11 -5 0 -12 4 -15 10 -4 6 -19 12 -34 13 -15 1 -27 5 -27
8 0 3 -8 6 -17 7 -16 1 -50 9 -63 13 -3 1 -8 2 -12 1 -5 0 -8 3 -8 8 0 4 -27
14 -60 21 -33 7 -63 17 -66 21 -3 5 -16 9 -30 9 -13 0 -24 5 -24 10 0 6 -13
10 -30 10 -16 0 -30 4 -30 9 0 5 -13 12 -30 16 -16 4 -30 11 -30 16 0 6 -4 8
-9 5 -9 -6 -97 39 -107 55 -3 5 -10 7 -15 4 -5 -4 -9 -1 -9 4 0 6 -6 11 -14
11 -8 0 -21 8 -28 18 -7 9 -20 18 -28 20 -8 2 -16 8 -18 13 -2 5 -9 9 -15 9
-7 0 -18 9 -25 20 -7 11 -16 20 -22 20 -16 0 -160 152 -153 163 3 6 2 7 -4 4
-5 -3 -17 7 -27 24 -9 16 -21 29 -27 29 -5 0 -9 6 -9 13 0 8 -8 21 -18 31 -11
9 -28 34 -38 56 -10 22 -22 40 -25 40 -3 0 -16 23 -29 50 -13 28 -26 50 -30
50 -3 0 -6 10 -7 22 -1 11 -8 25 -15 29 -7 5 -9 9 -5 9 5 0 2 12 -7 28 -20 37
-41 95 -38 105 1 4 -2 7 -8 7 -6 0 -9 3 -8 8 3 11 -24 96 -36 111 -9 12 -8 13
4 6 12 -7 13 -6 3 6 -6 8 -15 28 -18 44 -14 68 -16 81 -16 98 0 11 -5 15 -12
10 -9 -5 -8 -2 0 9 7 8 10 18 6 22 -8 7 -7 5 -24 96 -6 36 -17 71 -23 79 -9
12 -8 13 3 6 11 -6 12 -5 5 6 -9 14 -11 24 -19 69 -2 14 -4 25 -5 25 -1 0 -4
16 -7 35 -2 19 -10 41 -16 49 -10 12 -9 13 3 6 12 -7 13 -6 4 6 -5 8 -10 21
-9 29 1 8 -2 22 -6 30 -4 9 -10 36 -14 60 -4 25 -8 50 -9 55 -14 56 -20 92
-18 103 2 6 -1 12 -6 12 -4 0 -9 10 -10 23 -4 48 -10 83 -17 99 -4 9 -4 22 0
28 3 5 2 10 -3 10 -6 0 -8 9 -5 20 3 11 1 20 -5 20 -5 0 -9 18 -8 39 0 22 -2
37 -6 34 -5 -2 -8 2 -9 9 0 7 -2 22 -4 33 -3 11 -5 35 -7 53 -1 17 -5 32 -8
32 -6 0 -12 36 -14 83 -1 15 -4 27 -7 27 -4 0 -10 20 -13 43 -4 24 -9 57 -13
73 -3 16 -6 35 -6 42 0 6 -5 12 -11 12 -6 0 -4 5 4 10 10 6 11 10 3 10 -7 0
-12 3 -12 8 1 4 0 9 -1 12 -1 3 -4 19 -5 35 -6 54 -16 90 -26 93 -5 2 -7 8 -4
12 11 18 -82 60 -97 45z"/>
<path d="M2940 7029 c0 -5 -7 -9 -17 -9 -9 0 -13 -3 -10 -6 3 -4 1 -16 -5 -28
-10 -19 -17 -47 -20 -83 -1 -7 -5 -13 -10 -13 -5 0 -7 -4 -4 -8 3 -4 0 -28 -5
-53 -6 -24 -13 -55 -16 -69 -9 -43 -11 -55 -13 -55 -2 0 -8 -23 -15 -60 -3
-16 -8 -42 -11 -57 -3 -15 -6 -31 -6 -35 0 -5 -5 -14 -11 -22 -10 -12 -9 -13
3 -6 9 5 7 -1 -5 -15 -11 -13 -14 -20 -7 -16 6 4 12 2 12 -3 0 -6 -5 -11 -12
-11 -6 0 -9 -2 -6 -5 3 -3 -1 -31 -9 -63 -8 -31 -16 -70 -19 -87 -3 -16 -10
-36 -16 -42 -6 -7 -8 -20 -4 -28 3 -9 2 -13 -4 -10 -5 3 -12 -6 -16 -20 -3
-13 -9 -23 -13 -21 -4 3 -15 -6 -25 -19 -10 -14 -22 -22 -27 -19 -5 3 -9 0 -9
-5 0 -6 -9 -11 -20 -11 -11 0 -20 -4 -20 -8 0 -5 -6 -9 -12 -10 -33 -4 -65
-11 -91 -21 -15 -6 -31 -10 -35 -10 -22 4 -32 -2 -26 -13 5 -9 2 -9 -9 1 -9 7
-17 9 -17 4 0 -5 -6 -10 -12 -11 -15 -1 -42 -7 -91 -20 -20 -6 -38 -7 -41 -4
-3 3 -6 0 -6 -6 0 -6 -9 -9 -20 -7 -11 2 -20 -1 -20 -7 0 -6 -3 -9 -6 -6 -10
11 -94 -23 -94 -38 0 -8 -6 -14 -12 -14 -9 0 -8 -4 2 -10 13 -9 13 -10 0 -10
-13 0 -13 -1 0 -10 8 -5 11 -10 7 -10 -19 0 21 -28 58 -41 22 -7 47 -18 55
-24 8 -6 27 -11 42 -10 15 0 24 -3 22 -7 -3 -4 -2 -8 3 -9 4 0 17 -3 28 -5 11
-3 26 -6 33 -6 6 -1 12 -4 12 -8 0 -4 7 -7 15 -8 8 -1 22 -3 30 -4 8 -1 15 -6
15 -11 0 -6 3 -7 7 -4 3 4 12 2 20 -4 7 -6 13 -8 13 -4 0 4 11 0 25 -9 29 -19
39 -20 29 -3 -4 6 5 1 19 -12 19 -17 27 -20 27 -10 1 11 3 11 13 -2 7 -9 18
-14 25 -12 6 3 12 0 12 -7 0 -6 4 -8 10 -5 5 3 20 -5 32 -18 13 -13 30 -27 38
-30 13 -5 13 -6 0 -6 -10 -1 -8 -6 8 -17 12 -8 22 -22 22 -30 0 -8 3 -13 8
-11 4 3 8 -5 8 -16 1 -12 5 -33 9 -47 4 -14 9 -36 12 -50 2 -14 7 -32 10 -40
4 -8 5 -19 4 -24 -1 -4 4 -15 11 -24 11 -13 11 -14 -2 -7 -9 5 -7 -1 5 -15 12
-14 14 -20 5 -15 -12 6 -13 5 -2 -6 6 -7 12 -25 12 -40 0 -15 4 -30 10 -34 5
-3 7 -12 3 -21 -3 -8 3 -22 13 -30 11 -9 14 -13 7 -10 -7 4 -11 -1 -10 -13 0
-11 4 -18 8 -16 6 4 35 -132 31 -147 -1 -5 2 -8 6 -8 5 0 9 -6 9 -12 2 -42 22
-108 37 -123 15 -15 68 -13 74 3 2 7 8 10 13 6 9 -5 10 -4 14 31 1 12 8 31 15
44 6 13 7 21 2 17 -6 -4 -8 2 -5 14 3 11 10 17 16 13 6 -4 8 0 4 9 -3 9 0 21
6 28 8 8 8 11 1 7 -7 -4 -4 16 7 48 10 30 21 74 24 99 4 25 11 46 15 46 4 0 7
10 6 23 -1 12 4 33 10 46 7 13 11 32 9 42 -2 11 0 19 6 19 5 0 9 10 9 23 0 13
6 29 13 36 10 11 9 12 -2 6 -10 -6 -12 -4 -5 6 5 8 9 17 10 22 1 4 2 8 4 10 1
1 4 15 6 31 11 68 76 166 109 166 7 0 16 7 19 16 3 8 10 13 15 9 5 -3 13 0 16
6 4 5 13 8 21 5 8 -3 14 -1 14 5 0 6 5 7 10 4 6 -3 10 -1 10 4 0 6 3 10 8 9
16 -3 102 25 102 34 0 5 4 7 9 4 5 -4 30 3 55 14 26 11 48 20 51 20 3 0 12 0
21 0 9 0 12 5 8 13 -6 9 -4 9 8 -1 13 -10 17 -10 22 3 3 9 10 14 15 11 5 -4
22 -1 38 5 15 7 33 13 39 14 14 3 64 36 64 42 0 2 -5 1 -12 -3 -8 -5 -8 -3 -2
7 26 40 -16 88 -77 89 -14 0 -29 3 -33 8 -4 4 -11 7 -14 8 -4 0 -14 4 -22 7
-14 6 -71 17 -97 19 -7 1 -13 4 -13 8 0 4 -6 7 -12 8 -37 3 -69 9 -75 15 -3 4
-19 7 -35 7 -16 0 -27 4 -24 9 4 5 -2 8 -11 6 -10 -1 -22 0 -28 4 -5 3 -15 6
-21 7 -23 4 -84 37 -84 45 0 5 -6 9 -13 9 -12 0 -51 62 -47 76 1 4 -3 10 -9
13 -9 6 -23 57 -25 94 0 9 -4 17 -8 17 -4 0 -5 9 -3 20 2 11 1 20 -3 20 -4 0
-9 12 -10 26 -1 14 -5 31 -9 37 -4 6 -8 22 -9 35 -2 13 -15 71 -30 130 -15 59
-27 113 -27 120 0 6 -5 12 -11 12 -6 0 -4 5 4 10 12 7 12 10 1 10 -7 0 -11 6
-8 14 3 7 2 17 -3 22 -5 5 -11 23 -14 39 -20 114 -31 137 -73 146 -18 3 -33 3
-33 -2z"/>
<path d="M1887 3998 c-6 -4 -8 -8 -3 -8 5 0 3 -6 -3 -13 -6 -8 -8 -17 -4 -20
3 -4 1 -7 -6 -7 -7 0 -10 -4 -7 -8 4 -7 -7 -68 -23 -127 -3 -12 -3 -21 -1 -39
1 -12 -2 -16 -11 -11 -7 5 -10 4 -7 -1 9 -14 -18 -152 -33 -171 -9 -11 -10
-14 -1 -9 6 4 12 3 12 -3 0 -5 -5 -13 -10 -16 -6 -4 -8 -11 -5 -16 4 -5 3 -15
-1 -21 -5 -7 -9 -29 -11 -48 -2 -19 -6 -42 -9 -50 -7 -15 -11 -33 -17 -67 -1
-10 -6 -24 -11 -31 -4 -7 -5 -16 -2 -19 3 -3 -3 -22 -13 -42 -11 -20 -19 -38
-19 -41 0 -3 -6 -18 -13 -35 -7 -16 -12 -33 -11 -37 1 -5 -3 -8 -9 -8 -5 0 -8
-4 -5 -9 3 -4 -3 -19 -14 -31 -11 -13 -20 -29 -20 -37 0 -7 -5 -13 -11 -13 -6
0 -8 -7 -5 -16 3 -8 2 -12 -3 -9 -5 3 -12 -4 -16 -15 -4 -11 -11 -18 -16 -15
-5 4 -9 1 -9 -4 0 -26 -131 -156 -144 -144 -3 4 -6 1 -6 -6 0 -6 -11 -16 -25
-21 -14 -5 -25 -15 -25 -21 0 -7 -3 -10 -6 -6 -3 3 -25 -5 -47 -18 -23 -12
-61 -28 -85 -34 -23 -7 -40 -16 -37 -21 3 -6 0 -7 -8 -4 -8 3 -21 -2 -30 -10
-19 -19 -31 -21 -22 -3 4 6 1 5 -7 -4 -14 -17 -19 -19 -44 -19 -8 0 -12 -4 -9
-10 3 -6 -1 -7 -9 -4 -9 3 -16 1 -16 -5 0 -6 -3 -10 -7 -9 -5 1 -21 -4 -36
-10 -16 -7 -33 -12 -38 -12 -5 0 -9 -4 -9 -10 0 -5 -7 -7 -15 -4 -8 4 -15 2
-15 -4 0 -9 -47 -27 -62 -24 -5 1 -8 -3 -8 -9 0 -5 -5 -7 -10 -4 -6 3 -13 -1
-16 -10 -6 -13 -8 -14 -15 -3 -5 8 -9 9 -9 2 0 -7 -11 -15 -25 -18 -34 -9 -65
-45 -60 -70 2 -12 4 -27 4 -34 1 -12 76 -51 105 -56 6 -1 17 -5 24 -9 6 -5 16
-6 21 -3 5 4 11 1 13 -4 2 -6 13 -12 26 -13 12 0 22 -5 22 -9 0 -4 11 -8 25
-8 14 0 25 -5 25 -12 0 -6 3 -9 6 -5 3 3 28 -3 55 -13 27 -11 49 -17 49 -14 0
3 7 -1 15 -10 8 -8 24 -13 35 -11 11 2 20 -1 20 -6 0 -6 5 -7 10 -4 5 3 10 1
10 -4 0 -6 3 -10 8 -9 14 4 112 -34 112 -43 0 -6 4 -8 9 -4 5 3 16 -1 24 -9 8
-8 17 -12 21 -9 3 4 6 1 6 -6 0 -7 4 -9 10 -6 5 3 15 -3 22 -15 7 -11 18 -20
24 -20 16 0 124 -102 124 -118 0 -6 6 -11 13 -10 7 2 11 -5 9 -16 -2 -10 1
-15 6 -12 5 3 15 -6 22 -19 7 -14 17 -25 22 -25 5 0 7 -4 3 -9 -3 -5 2 -16 10
-24 8 -9 15 -20 15 -26 0 -6 4 -11 8 -11 4 0 9 -10 9 -22 1 -13 7 -24 13 -26
5 -2 10 -12 10 -23 0 -10 5 -19 11 -19 5 0 7 -4 4 -10 -3 -5 -2 -10 3 -10 5 0
9 -6 10 -12 0 -7 3 -22 5 -33 3 -11 7 -27 9 -35 1 -8 6 -17 9 -20 4 -3 9 -23
10 -45 2 -22 7 -42 11 -45 4 -3 9 -21 11 -41 2 -19 7 -40 11 -47 4 -7 4 -12
-1 -12 -4 0 -1 -5 7 -10 11 -7 11 -10 2 -10 -9 0 -10 -5 -3 -19 6 -10 7 -21 4
-25 -3 -3 -1 -6 6 -6 7 0 11 -6 8 -12 -2 -7 0 -21 5 -32 7 -13 7 -16 -1 -12
-6 4 -4 -9 4 -29 9 -19 16 -47 17 -62 1 -16 5 -32 9 -38 3 -5 10 -36 13 -67 4
-32 11 -58 16 -58 5 0 7 -7 4 -15 -4 -8 -1 -21 5 -29 6 -7 7 -16 3 -20 -4 -4
-2 -7 3 -6 6 1 12 1 15 0 24 -9 65 -9 78 2 12 10 14 10 8 1 -13 -23 4 -14 29
14 38 43 46 52 45 55 -1 2 4 16 10 32 6 16 9 35 6 43 -3 7 -2 13 3 13 7 0 20
42 21 65 0 3 6 21 15 40 8 20 10 33 4 29 -6 -3 -4 5 5 19 9 13 16 29 15 33 -1
5 0 11 1 14 2 5 7 29 13 53 1 6 7 18 11 26 7 11 6 12 -5 6 -11 -7 -12 -6 -3 6
11 13 37 110 37 137 0 6 5 12 10 12 5 0 7 9 4 20 -3 11 -2 20 2 20 4 0 8 12 9
27 1 15 8 30 15 35 9 6 8 8 -3 8 -13 1 -12 2 1 10 10 6 15 20 14 35 -2 14 1
25 6 25 5 0 8 3 8 8 -3 17 14 72 23 72 5 0 6 4 3 10 -3 5 -1 10 4 10 6 0 11 6
11 13 0 29 116 177 139 177 5 0 12 7 15 16 3 8 10 12 16 9 6 -3 13 1 16 9 3 9
10 13 15 10 5 -3 9 0 9 6 0 6 4 9 9 6 5 -3 14 1 21 9 7 8 16 12 21 9 5 -3 9
-2 9 3 0 8 36 26 78 38 12 3 22 11 22 16 0 6 4 8 8 5 5 -3 19 1 33 7 13 7 31
12 39 12 8 0 18 3 21 7 3 5 15 10 27 13 12 2 28 7 34 11 7 5 19 9 28 10 8 1
29 7 47 12 17 6 35 7 39 4 4 -4 4 -1 0 6 -4 7 -2 12 6 13 13 1 28 3 58 10 8 2
18 8 22 13 3 5 19 11 35 13 49 5 53 6 53 15 0 5 5 6 10 3 6 -3 10 -1 10 5 0 6
3 9 8 6 4 -2 14 1 22 7 52 41 62 97 24 132 -15 14 -30 22 -35 20 -4 -3 -10 -1
-14 5 -3 5 -15 10 -26 10 -10 0 -19 5 -19 11 0 5 -4 8 -9 5 -5 -3 -22 1 -37 9
-16 8 -37 15 -46 15 -10 0 -18 5 -18 11 0 5 -4 8 -8 5 -5 -3 -21 1 -36 9 -15
8 -42 17 -61 21 -19 3 -35 10 -35 16 0 5 -4 6 -10 3 -5 -3 -10 -2 -10 3 0 5
-12 10 -27 10 -15 0 -29 4 -31 10 -2 6 -10 8 -19 5 -11 -4 -14 -2 -9 5 4 7 -1
10 -14 7 -11 -2 -20 0 -20 4 0 4 -19 13 -42 20 -23 7 -52 20 -65 28 -13 8 -23
11 -23 7 0 -5 -5 -1 -11 9 -6 9 -14 15 -19 12 -4 -3 -11 2 -14 11 -4 9 -13 14
-21 10 -8 -3 -15 -2 -15 2 0 4 -22 25 -50 46 -29 22 -47 43 -43 50 3 6 3 8 -2
4 -4 -4 -12 -1 -19 6 -60 66 -69 78 -56 72 9 -5 8 -2 -2 7 -10 8 -18 22 -18
31 0 9 -4 16 -10 16 -5 0 -10 9 -10 19 0 11 -5 21 -11 23 -5 2 -11 10 -13 18
-2 8 -6 22 -9 30 -3 8 -11 33 -18 55 -6 22 -17 43 -23 47 -8 5 -7 8 2 8 9 0 9
8 -2 35 -9 20 -15 38 -16 40 0 3 0 6 -1 8 0 1 -3 13 -5 27 -14 79 -26 125 -38
139 -9 12 -8 13 3 6 11 -6 12 -5 5 6 -9 14 -13 29 -16 62 -1 9 -5 17 -8 17 -3
0 -7 14 -8 31 -1 18 -6 37 -9 43 -7 10 -11 23 -17 56 -2 8 -6 22 -9 30 -12 30
-31 105 -30 118 0 6 -3 12 -8 12 -5 0 -8 3 -7 8 1 4 -3 16 -9 27 -6 11 -9 28
-8 38 2 9 -3 17 -11 17 -8 0 -14 6 -14 14 0 8 -9 17 -19 21 -24 7 -88 3 -104
-7z"/>
</g>
</svg>
